<?xml version="1.0" encoding="UTF-8"?>
<svg version="1.1" xmlns="http://www.w3.org/2000/svg" width="240" height="240">
    <!-- <path d="M0 0 C79.2 0 158.4 0 240 0 C240 79.2 240 158.4 240 240 C160.8 240 81.6 240 0 240 C0 160.8 0 81.6 0 0 Z "
        fill="#243083" transform="translate(0,0)" /> -->
    <path
        d="M0 0 C11.5133121 7.89340612 19.15440221 19.25436974 22.25 32.875 C22.46914062 32.19695312 22.68828125 31.51890625 22.9140625 30.8203125 C28.47221665 14.50735601 37.72665538 3.16181959 53.16796875 -4.58984375 C64.78511149 -9.09248804 78.0669912 -8.36779605 89.68359375 -4.265625 C104.02649178 2.10899635 113.24905371 11.23574885 119.25 25.875 C121.35576267 31.78263452 121.59999805 37.17764292 121.5625 43.375 C121.55686035 44.34896729 121.5512207 45.32293457 121.54541016 46.32641602 C121.09222385 73.51535082 108.34948636 97.65721796 89.0078125 116.40625 C85.00055391 119.99348432 80.79019603 123.00484423 76.25 125.875 C75.46109375 126.39707031 74.6721875 126.91914063 73.859375 127.45703125 C52.574155 141.01777625 24.92364593 144.46542437 0.375 139.6875 C-14.69997561 135.66126428 -28.86126778 129.05004109 -40.75 118.875 C-41.53761719 118.23175781 -42.32523438 117.58851563 -43.13671875 116.92578125 C-61.72361385 101.14005088 -74.67151111 77.33283499 -76.75 52.875 C-77.82700489 35.93804414 -75.72127965 22.50598381 -64.75 8.875 C-47.9972171 -9.62481426 -21.10303997 -12.34659185 0 0 Z "
        fill="#E9DDCC" transform="translate(97.75,53.125)" />
    <path
        d="M0 0 C9.51446254 7.56755295 15.41150957 17.97531059 18.1953125 29.74609375 C19.33337718 44.11231283 17.18789675 57.72124792 8.15234375 69.3828125 C-1.6416554 80.66024009 -13.25131418 87.81088542 -28.53125 88.94921875 C-43.41450966 89.18991837 -55.7258798 84.36799193 -66.546875 74.140625 C-69.85843773 70.62853512 -72.41675326 66.92873328 -74.8046875 62.74609375 C-75.19398437 62.10027344 -75.58328125 61.45445313 -75.984375 60.7890625 C-81.04584302 51.71905959 -81.96594854 39.95929266 -81.8046875 29.74609375 C-81.1446875 28.75609375 -80.4846875 27.76609375 -79.8046875 26.74609375 C-79.19632669 25.21413062 -78.61562402 23.67104991 -78.0546875 22.12109375 C-75.9756494 16.80713442 -73.1964759 12.31652861 -69.8046875 7.74609375 C-69.2065625 6.92882812 -68.6084375 6.1115625 -67.9921875 5.26953125 C-50.29897766 -15.1408501 -20.97598068 -14.65395166 0 0 Z "
        fill="#E3A722" transform="translate(200.8046875,56.25390625)" />
</svg>
